<svg width="200" height="200" viewBox="0 0 200 200" fill="none" xmlns="http://www.w3.org/2000/svg">
  <defs>
    <linearGradient id="faceGradient" x1="0%" y1="0%" x2="0%" y2="100%">
      <stop offset="0%" style="stop-color:#FFE082;stop-opacity:1" />
      <stop offset="100%" style="stop-color:#FFD54F;stop-opacity:1" />
    </linearGradient>
  </defs>
  
  <!-- 배경 원 -->
  <circle cx="100" cy="100" r="100" fill="#FFF8E1"/>
  
  <!-- 맹꽁이 얼굴 (둥근 형태) -->
  <circle cx="100" cy="110" r="65" fill="url(#faceGradient)"/>
  
  <!-- 귀 (더 둥글고 큼) -->
  <ellipse cx="45" cy="55" rx="18" ry="22" fill="#FFE082"/>
  <ellipse cx="155" cy="55" rx="18" ry="22" fill="#FFE082"/>
  <ellipse cx="45" cy="55" rx="12" ry="15" fill="#FFF8E1"/>
  <ellipse cx="155" cy="55" rx="12" ry="15" fill="#FFF8E1"/>
  
  <!-- 눈 (웹툰 스타일 - 더 크고 둥글게) -->
  <circle cx="85" cy="95" r="14" fill="#000"/>
  <circle cx="115" cy="95" r="14" fill="#000"/>
  <circle cx="88" cy="92" r="5" fill="#FFF"/>
  <circle cx="118" cy="92" r="5" fill="#FFF"/>
  
  <!-- 눈썹 -->
  <path d="M 75 85 Q 85 80 85 85" stroke="#000" stroke-width="3" fill="none" stroke-linecap="round"/>
  <path d="M 115 85 Q 125 80 125 85" stroke="#000" stroke-width="3" fill="none" stroke-linecap="round"/>
  
  <!-- 코 (작고 귀여운) -->
  <ellipse cx="100" cy="108" rx="6" ry="5" fill="#FFB74D"/>
  
  <!-- 입 (웃는 모습) -->
  <path d="M 88 125 Q 100 135 112 125" stroke="#000" stroke-width="3" fill="none" stroke-linecap="round"/>
  
  <!-- 볼 홍조 (더 뚜렷하게) -->
  <ellipse cx="68" cy="110" rx="14" ry="10" fill="#FFB74D" opacity="0.5"/>
  <ellipse cx="132" cy="110" rx="14" ry="10" fill="#FFB74D" opacity="0.5"/>
  
  <!-- 웃는 주름 (웹툰 스타일) -->
  <path d="M 72 120 Q 78 125 84 120" stroke="#000" stroke-width="2" fill="none" stroke-linecap="round"/>
  <path d="M 116 120 Q 122 125 128 120" stroke="#000" stroke-width="2" fill="none" stroke-linecap="round"/>
  
  <!-- 하이라이트 (얼굴 윗부분) -->
  <ellipse cx="100" cy="90" rx="25" ry="15" fill="#FFF" opacity="0.3"/>
</svg>

